<svg width="500" height="400" viewBox="0 0 500 400" fill="none" xmlns="http://www.w3.org/2000/svg">
  <rect x="50" y="50" width="400" height="300" rx="20" fill="#F1F0FB"/>
  <rect x="70" y="80" width="360" height="60" rx="8" fill="white"/>
  <rect x="90" y="100" width="200" height="20" rx="4" fill="#E2E8F0"/>
  <rect x="370" y="95" width="40" height="30" rx="6" fill="#9B87F5"/>

  <rect x="70" y="160" width="360" height="160" rx="8" fill="white"/>
  <rect x="90" y="180" width="320" height="20" rx="4" fill="#E2E8F0"/>
  <rect x="90" y="210" width="280" height="20" rx="4" fill="#E2E8F0"/>
  <rect x="90" y="240" width="320" height="20" rx="4" fill="#E2E8F0"/>
  <rect x="90" y="270" width="150" height="20" rx="4" fill="#E2E8F0"/>
  <rect x="290" y="270" width="120" height="30" rx="6" fill="#9B87F5"/>

  <circle cx="110" cy="60" r="40" fill="#9B87F5" fill-opacity="0.2"/>
  <circle cx="390" cy="330" r="60" fill="#9B87F5" fill-opacity="0.2"/>
  <circle cx="40" cy="250" r="30" fill="#9B87F5" fill-opacity="0.2"/>
</svg>
